# xmcd
#
# Track frame offsets:
#	150
#	13925
#	24093
#	35706
#	45640
#	58082
#	70744
#	83639
#	94391
#	104328
#	114739
#	125495
#	136681
#	147005
#	159433
#	168193
#	178764
#	190463
#	203425
#
# Disc length: 2879 seconds
#
# Revision: 1
# Processed by: cddbd v1.5.2PL0 Copyright (c) Steve Scherf et al.
# Submitted via: dBpowerAMP V4.0
#
DISCID=000b3d13
DTITLE=Jimmy Reed - His Greatest Recordings
DYEAR=1999
DGENRE=Blues
TTITLE0=You Don't Have to Go
TTITLE1=I Ain't Got You
TTITLE2=She Don't Want Me No More
TTITLE3=Ain't That Lovin' You Baby
TTITLE4=You Got Me Dizzy
TTITLE5=The Sun is Shining
TTITLE6=Honest I Do
TTITLE7=Down in Virginia
TTITLE8=I Wanna Be Loved
TTITLE9=Take Out Some Insurance
TTITLE10=Baby What You Want Me to Do
TTITLE11=Hush Hush
TTITLE12=Found Love
TTITLE13=Big Boss Man
TTITLE14=I'm A Love You (I'm in Love With You)
TTITLE15=Awe Shucks Hush Your Mouth
TTITLE16=Bright Lights Big City
TTITLE17=Close Together
TTITLE18=Shame Shame Shame
EXTD=
EXTT0=
EXTT1=
EXTT2=
EXTT3=
EXTT4=
EXTT5=
EXTT6=
EXTT7=
EXTT8=
EXTT9=
EXTT10=
EXTT11=
EXTT12=
EXTT13=
EXTT14=
EXTT15=
EXTT16=
EXTT17=
EXTT18=
PLAYORDER=
